<svg xmlns="http://www.w3.org/2000/svg" viewBox="0 0 512 512">
  <defs>
    <radialGradient id="ff-gem-glow" cx="50%" cy="50%" r="50%">
      <stop offset="0%" stop-color="#A6E1FA" />
      <stop offset="70%" stop-color="#0B4F6C" />
      <stop offset="100%" stop-color="#023047" />
    </radialGradient>
  </defs>
  <!-- Background for maskable icon support -->
  <rect width="512" height="512" rx="90" fill="#111827" />
  <!-- Scaled up central gem element from original logo -->
  <g transform="translate(256, 256) scale(11.5)">
    <rect x="-21" y="-21" width="42" height="42" rx="8" fill="#023047" stroke="#1E293B" stroke-width="1.5"/>
    <path 
      d="M -2, -18 Q 0, -20, 2, -18 L 18, -2 Q 20, 0, 18, 2 L 2, 18 Q 0, 20, -2, 18 L -18, 2 Q -20, 0, -18, -2 Z"
      fill="url(#ff-gem-glow)"
      stroke="#6366F1"
      stroke-width="0.5"
      stroke-opacity="0.5"
    />
    <path 
      d="M 0,-13.5 9.5,-9.5 13.5,0 9.5,9.5 0,13.5 -9.5,9.5 -13.5,0 -9.5,-9.5 Z"
      fill="none"
      stroke="#A6E1FA"
      stroke-width="1.2"
      stroke-opacity="0.7"
    />
     <circle cx="0" cy="0" r="4" fill="#A6E1FA" opacity="0.8"/>
     <circle cx="0" cy="0" r="2" fill="#FFFFFF" opacity="0.9"/>
  </g>
</svg>
